<svg width="49" height="34" viewBox="0 0 49 34" fill="none" xmlns="http://www.w3.org/2000/svg">
<path d="M27.7083 8.03128C28.5426 7.19692 29.0641 6.0149 29.0641 4.72859C29.0641 2.12121 26.9782 0.0353088 24.3708 0.0353088C22.7369 0.0353088 21.2767 0.869662 20.4424 2.15597C20.2338 2.36456 1.56495 25.379 1.39113 25.6572C0.556763 26.4915 0.0352783 27.6735 0.0352783 28.9599C0.0352783 31.5672 2.12118 33.6531 4.72856 33.6531C6.36252 33.6531 7.82265 32.8188 8.65701 31.5325C8.83084 31.2891 27.4997 8.27463 27.7083 8.03128Z" fill="white"/>
<path d="M38.4849 18.9469C39.3192 18.1125 39.8407 16.9305 39.8407 15.6442C39.8407 13.0368 37.7548 10.9509 35.1474 10.9509C33.5135 10.9509 32.0533 11.7853 31.219 13.0716C31.0104 13.2802 21.1719 25.3784 20.998 25.6566C20.1637 26.4909 19.6422 27.6729 19.6422 28.9592C19.6422 31.5666 21.7281 33.6525 24.3355 33.6525C25.9695 33.6525 27.4296 32.8182 28.2639 31.5319C28.5073 31.2885 38.311 19.1903 38.4849 18.9469Z" fill="white"/>
<path d="M48.7059 4.69329C48.7059 7.30067 46.62 9.38657 44.0126 9.38657C41.4052 9.38657 39.3193 7.30067 39.3193 4.69329C39.3193 2.0859 41.4052 0 44.0126 0C46.62 0.0347651 48.7059 2.12067 48.7059 4.69329Z" fill="white"/>
<path d="M9.38657 4.69329C9.38657 7.30067 7.30067 9.38657 4.69329 9.38657C2.0859 9.38657 0 7.30067 0 4.69329C0 2.0859 2.0859 0 4.69329 0C7.30067 0.0347651 9.38657 2.12067 9.38657 4.69329Z" fill="white"/>
</svg>
